<?xml version="1.0" standalone="no"?>
<!DOCTYPE svg PUBLIC "-//W3C//DTD SVG 20010904//EN"
 "http://www.w3.org/TR/2001/REC-SVG-20010904/DTD/svg10.dtd">
<svg version="1.0" xmlns="http://www.w3.org/2000/svg"
 width="356.000000pt" height="356.000000pt" viewBox="0 0 356.000000 356.000000"
 preserveAspectRatio="xMidYMid meet">
<metadata>
Created by potrace 1.14, written by Peter Selinger 2001-2017
</metadata>
<g transform="translate(0.000000,356.000000) scale(0.100000,-0.100000)"
fill="#000000" stroke="none">
<path d="M93 2959 c-16 -5 -17 -91 -17 -1127 l-1 -1122 385 2 385 3 0 132 c0
81 -4 134 -10 134 -5 1 -82 3 -169 3 l-160 2 -6 24 c-4 20 -6 1625 -1 1665 1
6 66 10 173 10 l172 0 1 133 c0 73 -2 136 -5 140 -6 8 -724 9 -747 1z"/>
<path d="M2693 2944 c-2 -5 -2 -68 -1 -139 l3 -128 170 -1 170 -1 0 -847 0
-848 -172 0 -173 0 0 -140 0 -140 383 0 383 0 0 1128 0 1127 -379 0 c-257 0
-381 -3 -384 -11z"/>
<path d="M957 2522 c-21 -4 -19 21 -21 -285 l-1 -258 30 2 c17 2 36 0 43 -5 6
-4 12 -4 12 1 0 10 93 8 109 -1 6 -4 11 -4 11 1 0 4 49 8 110 8 60 0 110 -4
110 -8 0 -5 6 -5 13 0 6 4 39 7 72 6 33 -1 62 2 65 7 4 6 5 487 1 525 -1 9
-510 15 -554 7z"/>
<path d="M2084 2522 l-52 -3 0 -269 -1 -269 112 0 c62 0 117 -1 122 -2 6 -1
15 0 20 1 13 2 87 2 100 0 6 -1 14 -2 20 0 30 6 95 4 95 -3 0 -5 5 -5 12 -1 6
4 31 6 55 5 l43 -1 1 127 c1 257 -1 406 -5 411 -5 5 -447 8 -522 4z"/>
<path d="M2088 1745 c-32 -13 -58 -22 -58 -19 0 2 -26 -8 -57 -22 -32 -13 -64
-26 -73 -28 -8 -2 -24 -7 -35 -11 -49 -20 -120 -47 -125 -47 -3 0 -16 -5 -30
-10 -14 -6 -29 -11 -35 -12 -5 -2 -19 -7 -30 -11 -69 -28 -115 -44 -115 -40 0
2 -25 -7 -55 -20 -30 -14 -55 -22 -55 -19 0 4 -6 2 -12 -3 -7 -6 -43 -20 -80
-33 -38 -13 -69 -26 -69 -29 -4 -18 -5 -148 -1 -158 2 -7 12 -13 22 -13 11 0
21 -4 24 -9 3 -4 38 -18 78 -31 40 -12 78 -27 85 -32 6 -5 24 -11 39 -14 15
-3 48 -13 73 -23 45 -18 141 -54 151 -57 3 0 12 -3 20 -7 41 -16 137 -49 150
-52 8 -2 44 -15 79 -29 36 -14 68 -26 72 -26 3 0 24 -8 45 -17 68 -29 69 -28
69 66 l0 85 -80 29 c-44 16 -87 30 -95 32 -16 4 -181 61 -215 74 -24 10 -174
61 -195 67 -40 10 -90 29 -90 34 0 4 125 49 180 65 8 2 87 29 175 60 88 31
167 58 175 60 8 2 15 4 15 5 0 0 29 11 65 23 l65 23 0 84 c0 46 -5 85 -10 86
-6 2 -36 -8 -67 -21z"/>
</g>
</svg>
